{
	"asset":{
		"generator":"Khronos glTF Blender I/O v4.0.44",
		"version":"2.0"
	},
	"scene":0,
	"scenes":[
		{
			"name":"Scene",
			"nodes":[
				0,
				1,
				2,
				3,
				4,
				5,
				6,
				7,
				8,
				9
			]
		}
	],
	"nodes":[
		{
			"mesh":0,
			"name":"button_1-col"
		},
		{
			"mesh":1,
			"name":"button_2-col",
			"translation":[
				-0.3616619408130646,
				0,
				0
			]
		},
		{
			"mesh":2,
			"name":"button_3-col",
			"translation":[
				-0.7325592041015625,
				0,
				0
			]
		},
		{
			"mesh":3,
			"name":"button_4-col",
			"translation":[
				-1.0983792543411255,
				0,
				0
			]
		},
		{
			"mesh":4,
			"name":"button_5-col",
			"translation":[
				-1.4681353569030762,
				0,
				0
			]
		},
		{
			"mesh":5,
			"name":"button_6-col",
			"translation":[
				-1.835583209991455,
				0,
				0
			]
		},
		{
			"mesh":6,
			"name":"button_7-col",
			"translation":[
				-2.2130885124206543,
				0,
				0
			]
		},
		{
			"mesh":7,
			"name":"button_8-col",
			"translation":[
				-2.5714948177337646,
				0,
				0
			]
		},
		{
			"mesh":8,
			"name":"button_9-col",
			"translation":[
				-2.929933786392212,
				0,
				0
			]
		},
		{
			"mesh":9,
			"name":"button_0-col",
			"translation":[
				-3.27407169342041,
				0,
				0
			]
		}
	],
	"materials":[
		{
			"doubleSided":true,
			"name":"Material",
			"pbrMetallicRoughness":{
				"baseColorTexture":{
					"index":0
				},
				"metallicFactor":0,
				"roughnessFactor":0.5
			}
		},
		{
			"doubleSided":true,
			"name":"Material.004",
			"pbrMetallicRoughness":{
				"baseColorTexture":{
					"index":1
				},
				"metallicFactor":0,
				"roughnessFactor":0.5
			}
		},
		{
			"doubleSided":true,
			"name":"Material.005",
			"pbrMetallicRoughness":{
				"baseColorTexture":{
					"index":2
				},
				"metallicFactor":0,
				"roughnessFactor":0.5
			}
		}
	],
	"meshes":[
		{
			"name":"Cube",
			"primitives":[
				{
					"attributes":{
						"POSITION":0,
						"NORMAL":1,
						"TEXCOORD_0":2
					},
					"indices":3,
					"material":0
				}
			]
		},
		{
			"name":"Cube.001",
			"primitives":[
				{
					"attributes":{
						"POSITION":4,
						"NORMAL":5,
						"TEXCOORD_0":6
					},
					"indices":3,
					"material":0
				}
			]
		},
		{
			"name":"Cube.002",
			"primitives":[
				{
					"attributes":{
						"POSITION":7,
						"NORMAL":8,
						"TEXCOORD_0":9
					},
					"indices":3,
					"material":0
				}
			]
		},
		{
			"name":"Cube.003",
			"primitives":[
				{
					"attributes":{
						"POSITION":10,
						"NORMAL":11,
						"TEXCOORD_0":12
					},
					"indices":3,
					"material":0
				}
			]
		},
		{
			"name":"Cube.004",
			"primitives":[
				{
					"attributes":{
						"POSITION":13,
						"NORMAL":14,
						"TEXCOORD_0":15
					},
					"indices":3,
					"material":1
				}
			]
		},
		{
			"name":"Cube.005",
			"primitives":[
				{
					"attributes":{
						"POSITION":16,
						"NORMAL":17,
						"TEXCOORD_0":18
					},
					"indices":3,
					"material":1
				}
			]
		},
		{
			"name":"Cube.006",
			"primitives":[
				{
					"attributes":{
						"POSITION":19,
						"NORMAL":20,
						"TEXCOORD_0":21
					},
					"indices":3,
					"material":1
				}
			]
		},
		{
			"name":"Cube.007",
			"primitives":[
				{
					"attributes":{
						"POSITION":22,
						"NORMAL":23,
						"TEXCOORD_0":24
					},
					"indices":3,
					"material":1
				}
			]
		},
		{
			"name":"Cube.008",
			"primitives":[
				{
					"attributes":{
						"POSITION":25,
						"NORMAL":26,
						"TEXCOORD_0":27
					},
					"indices":3,
					"material":2
				}
			]
		},
		{
			"name":"Cube.009",
			"primitives":[
				{
					"attributes":{
						"POSITION":28,
						"NORMAL":29,
						"TEXCOORD_0":30
					},
					"indices":3,
					"material":2
				}
			]
		}
	],
	"textures":[
		{
			"sampler":0,
			"source":0
		},
		{
			"sampler":0,
			"source":1
		},
		{
			"sampler":0,
			"source":2
		}
	],
	"images":[
		{
			"mimeType":"image/png",
			"name":"buttons_tex",
			"uri":"textures/buttons_tex.png"
		},
		{
			"mimeType":"image/png",
			"name":"button_tex2",
			"uri":"textures/button_tex2.png"
		},
		{
			"mimeType":"image/png",
			"name":"button_tex3",
			"uri":"textures/button_tex3.png"
		}
	],
	"accessors":[
		{
			"bufferView":0,
			"componentType":5126,
			"count":160,
			"max":[
				0.1312311887741089,
				0.2772994935512543,
				0.004939258098602295
			],
			"min":[
				-0.1312311887741089,
				-0.1312311887741089,
				-0.14280100166797638
			],
			"type":"VEC3"
		},
		{
			"bufferView":1,
			"componentType":5126,
			"count":160,
			"type":"VEC3"
		},
		{
			"bufferView":2,
			"componentType":5126,
			"count":160,
			"type":"VEC2"
		},
		{
			"bufferView":3,
			"componentType":5123,
			"count":396,
			"type":"SCALAR"
		},
		{
			"bufferView":4,
			"componentType":5126,
			"count":160,
			"max":[
				0.1312311887741089,
				0.2772994935512543,
				0.004939258098602295
			],
			"min":[
				-0.1312311887741089,
				-0.1312311887741089,
				-0.14280100166797638
			],
			"type":"VEC3"
		},
		{
			"bufferView":5,
			"componentType":5126,
			"count":160,
			"type":"VEC3"
		},
		{
			"bufferView":6,
			"componentType":5126,
			"count":160,
			"type":"VEC2"
		},
		{
			"bufferView":7,
			"componentType":5126,
			"count":160,
			"max":[
				0.1312311887741089,
				0.2772994935512543,
				0.004939258098602295
			],
			"min":[
				-0.1312311887741089,
				-0.1312311887741089,
				-0.14280100166797638
			],
			"type":"VEC3"
		},
		{
			"bufferView":8,
			"componentType":5126,
			"count":160,
			"type":"VEC3"
		},
		{
			"bufferView":9,
			"componentType":5126,
			"count":160,
			"type":"VEC2"
		},
		{
			"bufferView":10,
			"componentType":5126,
			"count":160,
			"max":[
				0.1312311887741089,
				0.2772994935512543,
				0.004939258098602295
			],
			"min":[
				-0.1312311887741089,
				-0.1312311887741089,
				-0.14280100166797638
			],
			"type":"VEC3"
		},
		{
			"bufferView":11,
			"componentType":5126,
			"count":160,
			"type":"VEC3"
		},
		{
			"bufferView":12,
			"componentType":5126,
			"count":160,
			"type":"VEC2"
		},
		{
			"bufferView":13,
			"componentType":5126,
			"count":160,
			"max":[
				0.1312311887741089,
				0.2772994935512543,
				0.004939258098602295
			],
			"min":[
				-0.1312311887741089,
				-0.1312311887741089,
				-0.14280100166797638
			],
			"type":"VEC3"
		},
		{
			"bufferView":14,
			"componentType":5126,
			"count":160,
			"type":"VEC3"
		},
		{
			"bufferView":15,
			"componentType":5126,
			"count":160,
			"type":"VEC2"
		},
		{
			"bufferView":16,
			"componentType":5126,
			"count":160,
			"max":[
				0.1312311887741089,
				0.2772994935512543,
				0.004939258098602295
			],
			"min":[
				-0.1312311887741089,
				-0.1312311887741089,
				-0.14280100166797638
			],
			"type":"VEC3"
		},
		{
			"bufferView":17,
			"componentType":5126,
			"count":160,
			"type":"VEC3"
		},
		{
			"bufferView":18,
			"componentType":5126,
			"count":160,
			"type":"VEC2"
		},
		{
			"bufferView":19,
			"componentType":5126,
			"count":160,
			"max":[
				0.1312311887741089,
				0.2772994935512543,
				0.004939258098602295
			],
			"min":[
				-0.1312311887741089,
				-0.1312311887741089,
				-0.14280100166797638
			],
			"type":"VEC3"
		},
		{
			"bufferView":20,
			"componentType":5126,
			"count":160,
			"type":"VEC3"
		},
		{
			"bufferView":21,
			"componentType":5126,
			"count":160,
			"type":"VEC2"
		},
		{
			"bufferView":22,
			"componentType":5126,
			"count":160,
			"max":[
				0.1312311887741089,
				0.2772994935512543,
				0.004939258098602295
			],
			"min":[
				-0.1312311887741089,
				-0.1312311887741089,
				-0.14280100166797638
			],
			"type":"VEC3"
		},
		{
			"bufferView":23,
			"componentType":5126,
			"count":160,
			"type":"VEC3"
		},
		{
			"bufferView":24,
			"componentType":5126,
			"count":160,
			"type":"VEC2"
		},
		{
			"bufferView":25,
			"componentType":5126,
			"count":160,
			"max":[
				0.1312311887741089,
				0.2772994935512543,
				0.004939258098602295
			],
			"min":[
				-0.1312311887741089,
				-0.1312311887741089,
				-0.14280100166797638
			],
			"type":"VEC3"
		},
		{
			"bufferView":26,
			"componentType":5126,
			"count":160,
			"type":"VEC3"
		},
		{
			"bufferView":27,
			"componentType":5126,
			"count":160,
			"type":"VEC2"
		},
		{
			"bufferView":28,
			"componentType":5126,
			"count":160,
			"max":[
				0.1312311887741089,
				0.2772994935512543,
				0.004939258098602295
			],
			"min":[
				-0.1312311887741089,
				-0.1312311887741089,
				-0.14280100166797638
			],
			"type":"VEC3"
		},
		{
			"bufferView":29,
			"componentType":5126,
			"count":160,
			"type":"VEC3"
		},
		{
			"bufferView":30,
			"componentType":5126,
			"count":160,
			"type":"VEC2"
		}
	],
	"bufferViews":[
		{
			"buffer":0,
			"byteLength":1920,
			"byteOffset":0,
			"target":34962
		},
		{
			"buffer":0,
			"byteLength":1920,
			"byteOffset":1920,
			"target":34962
		},
		{
			"buffer":0,
			"byteLength":1280,
			"byteOffset":3840,
			"target":34962
		},
		{
			"buffer":0,
			"byteLength":792,
			"byteOffset":5120,
			"target":34963
		},
		{
			"buffer":0,
			"byteLength":1920,
			"byteOffset":5912,
			"target":34962
		},
		{
			"buffer":0,
			"byteLength":1920,
			"byteOffset":7832,
			"target":34962
		},
		{
			"buffer":0,
			"byteLength":1280,
			"byteOffset":9752,
			"target":34962
		},
		{
			"buffer":0,
			"byteLength":1920,
			"byteOffset":11032,
			"target":34962
		},
		{
			"buffer":0,
			"byteLength":1920,
			"byteOffset":12952,
			"target":34962
		},
		{
			"buffer":0,
			"byteLength":1280,
			"byteOffset":14872,
			"target":34962
		},
		{
			"buffer":0,
			"byteLength":1920,
			"byteOffset":16152,
			"target":34962
		},
		{
			"buffer":0,
			"byteLength":1920,
			"byteOffset":18072,
			"target":34962
		},
		{
			"buffer":0,
			"byteLength":1280,
			"byteOffset":19992,
			"target":34962
		},
		{
			"buffer":0,
			"byteLength":1920,
			"byteOffset":21272,
			"target":34962
		},
		{
			"buffer":0,
			"byteLength":1920,
			"byteOffset":23192,
			"target":34962
		},
		{
			"buffer":0,
			"byteLength":1280,
			"byteOffset":25112,
			"target":34962
		},
		{
			"buffer":0,
			"byteLength":1920,
			"byteOffset":26392,
			"target":34962
		},
		{
			"buffer":0,
			"byteLength":1920,
			"byteOffset":28312,
			"target":34962
		},
		{
			"buffer":0,
			"byteLength":1280,
			"byteOffset":30232,
			"target":34962
		},
		{
			"buffer":0,
			"byteLength":1920,
			"byteOffset":31512,
			"target":34962
		},
		{
			"buffer":0,
			"byteLength":1920,
			"byteOffset":33432,
			"target":34962
		},
		{
			"buffer":0,
			"byteLength":1280,
			"byteOffset":35352,
			"target":34962
		},
		{
			"buffer":0,
			"byteLength":1920,
			"byteOffset":36632,
			"target":34962
		},
		{
			"buffer":0,
			"byteLength":1920,
			"byteOffset":38552,
			"target":34962
		},
		{
			"buffer":0,
			"byteLength":1280,
			"byteOffset":40472,
			"target":34962
		},
		{
			"buffer":0,
			"byteLength":1920,
			"byteOffset":41752,
			"target":34962
		},
		{
			"buffer":0,
			"byteLength":1920,
			"byteOffset":43672,
			"target":34962
		},
		{
			"buffer":0,
			"byteLength":1280,
			"byteOffset":45592,
			"target":34962
		},
		{
			"buffer":0,
			"byteLength":1920,
			"byteOffset":46872,
			"target":34962
		},
		{
			"buffer":0,
			"byteLength":1920,
			"byteOffset":48792,
			"target":34962
		},
		{
			"buffer":0,
			"byteLength":1280,
			"byteOffset":50712,
			"target":34962
		}
	],
	"samplers":[
		{
			"magFilter":9729,
			"minFilter":9987
		}
	],
	"buffers":[
		{
			"byteLength":51992,
			"uri":"buttons.bin"
		}
	]
}
