{
	"asset":{
		"generator":"Khronos glTF Blender I/O v4.0.44",
		"version":"2.0"
	},
	"extensionsUsed":[
		"KHR_materials_specular",
		"KHR_materials_ior"
	],
	"scene":0,
	"scenes":[
		{
			"name":"Scene",
			"nodes":[
				0,
				1,
				2
			]
		}
	],
	"nodes":[
		{
			"mesh":0,
			"name":"doorarch-col",
			"scale":[
				1.1258817911148071,
				1.1113747358322144,
				1.1586586236953735
			],
			"translation":[
				0.03375130891799927,
				-0.04402798414230347,
				-0.0002787236589938402
			]
		},
		{
			"mesh":1,
			"name":"doorpillars-col",
			"scale":[
				1.1258817911148071,
				1.1113747358322144,
				1.1586586236953735
			],
			"translation":[
				0.03375130891799927,
				-0.04402798414230347,
				-0.0002787236589938402
			]
		},
		{
			"mesh":2,
			"name":"irondoor-col"
		}
	],
	"materials":[
		{
			"doubleSided":true,
			"extensions":{
				"KHR_materials_specular":{
					"specularFactor":0
				},
				"KHR_materials_ior":{
					"ior":1.4500000476837158
				}
			},
			"name":"Dungeon_Atlas",
			"pbrMetallicRoughness":{
				"baseColorTexture":{
					"index":0
				},
				"metallicFactor":0
			}
		}
	],
	"meshes":[
		{
			"name":"Cube",
			"primitives":[
				{
					"attributes":{
						"POSITION":0,
						"NORMAL":1,
						"TEXCOORD_0":2
					},
					"indices":3,
					"material":0
				}
			]
		},
		{
			"name":"Cube.004",
			"primitives":[
				{
					"attributes":{
						"POSITION":4,
						"NORMAL":5,
						"TEXCOORD_0":6
					},
					"indices":7,
					"material":0
				}
			]
		},
		{
			"name":"Cube.003",
			"primitives":[
				{
					"attributes":{
						"POSITION":8,
						"NORMAL":9,
						"TEXCOORD_0":10
					},
					"indices":11,
					"material":0
				}
			]
		}
	],
	"textures":[
		{
			"sampler":0,
			"source":0
		}
	],
	"images":[
		{
			"mimeType":"image/png",
			"name":"Dungeon_Atlas_Albedo",
			"uri":"Dungeon_Atlas_Albedo.png"
		}
	],
	"accessors":[
		{
			"bufferView":0,
			"componentType":5126,
			"count":178,
			"max":[
				0.822738528251648,
				2.0129566192626953,
				0.10525879263877869
			],
			"min":[
				-0.822738528251648,
				1.3410141468048096,
				-0.18510699272155762
			],
			"type":"VEC3"
		},
		{
			"bufferView":1,
			"componentType":5126,
			"count":178,
			"type":"VEC3"
		},
		{
			"bufferView":2,
			"componentType":5126,
			"count":178,
			"type":"VEC2"
		},
		{
			"bufferView":3,
			"componentType":5123,
			"count":402,
			"type":"SCALAR"
		},
		{
			"bufferView":4,
			"componentType":5126,
			"count":496,
			"max":[
				0.8336817622184753,
				1.341526985168457,
				0.12298312783241272
			],
			"min":[
				-0.8336817622184753,
				-0.01568010076880455,
				-0.20118741691112518
			],
			"type":"VEC3"
		},
		{
			"bufferView":5,
			"componentType":5126,
			"count":496,
			"type":"VEC3"
		},
		{
			"bufferView":6,
			"componentType":5126,
			"count":496,
			"type":"VEC2"
		},
		{
			"bufferView":7,
			"componentType":5123,
			"count":744,
			"type":"SCALAR"
		},
		{
			"bufferView":8,
			"componentType":5126,
			"count":336,
			"max":[
				0.6949848532676697,
				2.1328558921813965,
				0.0523713156580925
			],
			"min":[
				-0.6238749623298645,
				0.007308304309844971,
				-0.0523713156580925
			],
			"type":"VEC3"
		},
		{
			"bufferView":9,
			"componentType":5126,
			"count":336,
			"type":"VEC3"
		},
		{
			"bufferView":10,
			"componentType":5126,
			"count":336,
			"type":"VEC2"
		},
		{
			"bufferView":11,
			"componentType":5123,
			"count":504,
			"type":"SCALAR"
		}
	],
	"bufferViews":[
		{
			"buffer":0,
			"byteLength":2136,
			"byteOffset":0,
			"target":34962
		},
		{
			"buffer":0,
			"byteLength":2136,
			"byteOffset":2136,
			"target":34962
		},
		{
			"buffer":0,
			"byteLength":1424,
			"byteOffset":4272,
			"target":34962
		},
		{
			"buffer":0,
			"byteLength":804,
			"byteOffset":5696,
			"target":34963
		},
		{
			"buffer":0,
			"byteLength":5952,
			"byteOffset":6500,
			"target":34962
		},
		{
			"buffer":0,
			"byteLength":5952,
			"byteOffset":12452,
			"target":34962
		},
		{
			"buffer":0,
			"byteLength":3968,
			"byteOffset":18404,
			"target":34962
		},
		{
			"buffer":0,
			"byteLength":1488,
			"byteOffset":22372,
			"target":34963
		},
		{
			"buffer":0,
			"byteLength":4032,
			"byteOffset":23860,
			"target":34962
		},
		{
			"buffer":0,
			"byteLength":4032,
			"byteOffset":27892,
			"target":34962
		},
		{
			"buffer":0,
			"byteLength":2688,
			"byteOffset":31924,
			"target":34962
		},
		{
			"buffer":0,
			"byteLength":1008,
			"byteOffset":34612,
			"target":34963
		}
	],
	"samplers":[
		{
			"magFilter":9728,
			"minFilter":9984
		}
	],
	"buffers":[
		{
			"byteLength":35620,
			"uri":"door_2.bin"
		}
	]
}
