{
	"asset":{
		"generator":"Khronos glTF Blender I/O v4.0.44",
		"version":"2.0"
	},
	"extensionsUsed":[
		"KHR_materials_specular",
		"KHR_materials_ior"
	],
	"scene":0,
	"scenes":[
		{
			"name":"Scene",
			"nodes":[
				0,
				1,
				2,
				3
			]
		}
	],
	"nodes":[
		{
			"mesh":0,
			"name":"doorarch-col",
			"scale":[
				1.1258817911148071,
				1.1113747358322144,
				1.1586586236953735
			],
			"translation":[
				0.03375130891799927,
				-0.04402798414230347,
				-0.0002787236589938402
			]
		},
		{
			"mesh":1,
			"name":"doorpillars-col",
			"scale":[
				1.1258817911148071,
				1.1113747358322144,
				1.1586586236953735
			],
			"translation":[
				0.03375130891799927,
				-0.04402798414230347,
				-0.0002787236589938402
			]
		},
		{
			"mesh":2,
			"name":"wooddoor-col",
			"scale":[
				1.1258817911148071,
				1.1113747358322144,
				1.1586586236953735
			],
			"translation":[
				-0.5699895620346069,
				0.8346556425094604,
				0.0037922237534075975
			]
		},
		{
			"mesh":3,
			"name":"keyhole-col",
			"scale":[
				1.1258817911148071,
				1.1113747358322144,
				1.1586586236953735
			],
			"translation":[
				-0.5699895620346069,
				0.8346556425094604,
				0.0037922237534075975
			]
		}
	],
	"materials":[
		{
			"doubleSided":true,
			"extensions":{
				"KHR_materials_specular":{
					"specularFactor":0
				},
				"KHR_materials_ior":{
					"ior":1.4500000476837158
				}
			},
			"name":"Dungeon_Atlas",
			"pbrMetallicRoughness":{
				"baseColorTexture":{
					"index":0
				},
				"metallicFactor":0
			}
		},
		{
			"doubleSided":true,
			"extensions":{
				"KHR_materials_specular":{
					"specularFactor":0
				},
				"KHR_materials_ior":{
					"ior":1.4500000476837158
				}
			},
			"name":"Material.001",
			"pbrMetallicRoughness":{
				"baseColorFactor":[
					0,
					0,
					0,
					1
				],
				"metallicFactor":0
			}
		}
	],
	"meshes":[
		{
			"name":"Cube",
			"primitives":[
				{
					"attributes":{
						"POSITION":0,
						"NORMAL":1,
						"TEXCOORD_0":2
					},
					"indices":3,
					"material":0
				}
			]
		},
		{
			"name":"Cube.004",
			"primitives":[
				{
					"attributes":{
						"POSITION":4,
						"NORMAL":5,
						"TEXCOORD_0":6
					},
					"indices":7,
					"material":0
				}
			]
		},
		{
			"name":"Cube.005",
			"primitives":[
				{
					"attributes":{
						"POSITION":8,
						"NORMAL":9,
						"TEXCOORD_0":10
					},
					"indices":11,
					"material":0
				}
			]
		},
		{
			"name":"Cube.034",
			"primitives":[
				{
					"attributes":{
						"POSITION":12,
						"NORMAL":13,
						"TEXCOORD_0":14
					},
					"indices":15,
					"material":0
				},
				{
					"attributes":{
						"POSITION":16,
						"NORMAL":17,
						"TEXCOORD_0":18
					},
					"indices":19,
					"material":1
				}
			]
		}
	],
	"textures":[
		{
			"sampler":0,
			"source":0
		}
	],
	"images":[
		{
			"mimeType":"image/png",
			"name":"Dungeon_Atlas_Albedo",
			"uri":"Dungeon_Atlas_Albedo.png"
		}
	],
	"accessors":[
		{
			"bufferView":0,
			"componentType":5126,
			"count":178,
			"max":[
				0.822738528251648,
				2.0129566192626953,
				0.10525879263877869
			],
			"min":[
				-0.822738528251648,
				1.3410141468048096,
				-0.18510699272155762
			],
			"type":"VEC3"
		},
		{
			"bufferView":1,
			"componentType":5126,
			"count":178,
			"type":"VEC3"
		},
		{
			"bufferView":2,
			"componentType":5126,
			"count":178,
			"type":"VEC2"
		},
		{
			"bufferView":3,
			"componentType":5123,
			"count":402,
			"type":"SCALAR"
		},
		{
			"bufferView":4,
			"componentType":5126,
			"count":496,
			"max":[
				0.8336817622184753,
				1.341526985168457,
				0.12298312783241272
			],
			"min":[
				-0.8336817622184753,
				-0.01568010076880455,
				-0.20118741691112518
			],
			"type":"VEC3"
		},
		{
			"bufferView":5,
			"componentType":5126,
			"count":496,
			"type":"VEC3"
		},
		{
			"bufferView":6,
			"componentType":5126,
			"count":496,
			"type":"VEC2"
		},
		{
			"bufferView":7,
			"componentType":5123,
			"count":744,
			"type":"SCALAR"
		},
		{
			"bufferView":8,
			"componentType":5126,
			"count":1376,
			"max":[
				1.0686733722686768,
				1.0795413255691528,
				0.11921277642250061
			],
			"min":[
				-0.003372788429260254,
				-0.804382860660553,
				-0.12623977661132812
			],
			"type":"VEC3"
		},
		{
			"bufferView":9,
			"componentType":5126,
			"count":1376,
			"type":"VEC3"
		},
		{
			"bufferView":10,
			"componentType":5126,
			"count":1376,
			"type":"VEC2"
		},
		{
			"bufferView":11,
			"componentType":5123,
			"count":4092,
			"type":"SCALAR"
		},
		{
			"bufferView":12,
			"componentType":5126,
			"count":384,
			"max":[
				1.0144561529159546,
				0.09586173295974731,
				0.12115639448165894
			],
			"min":[
				0.7592447996139526,
				-0.2522391080856323,
				-0.12115639448165894
			],
			"type":"VEC3"
		},
		{
			"bufferView":13,
			"componentType":5126,
			"count":384,
			"type":"VEC3"
		},
		{
			"bufferView":14,
			"componentType":5126,
			"count":384,
			"type":"VEC2"
		},
		{
			"bufferView":15,
			"componentType":5123,
			"count":624,
			"type":"SCALAR"
		},
		{
			"bufferView":16,
			"componentType":5126,
			"count":48,
			"max":[
				0.9560315012931824,
				0.04690718650817871,
				0.09679736196994781
			],
			"min":[
				0.8269529342651367,
				-0.21150678396224976,
				-0.09679736196994781
			],
			"type":"VEC3"
		},
		{
			"bufferView":17,
			"componentType":5126,
			"count":48,
			"type":"VEC3"
		},
		{
			"bufferView":18,
			"componentType":5126,
			"count":48,
			"type":"VEC2"
		},
		{
			"bufferView":19,
			"componentType":5123,
			"count":144,
			"type":"SCALAR"
		}
	],
	"bufferViews":[
		{
			"buffer":0,
			"byteLength":2136,
			"byteOffset":0,
			"target":34962
		},
		{
			"buffer":0,
			"byteLength":2136,
			"byteOffset":2136,
			"target":34962
		},
		{
			"buffer":0,
			"byteLength":1424,
			"byteOffset":4272,
			"target":34962
		},
		{
			"buffer":0,
			"byteLength":804,
			"byteOffset":5696,
			"target":34963
		},
		{
			"buffer":0,
			"byteLength":5952,
			"byteOffset":6500,
			"target":34962
		},
		{
			"buffer":0,
			"byteLength":5952,
			"byteOffset":12452,
			"target":34962
		},
		{
			"buffer":0,
			"byteLength":3968,
			"byteOffset":18404,
			"target":34962
		},
		{
			"buffer":0,
			"byteLength":1488,
			"byteOffset":22372,
			"target":34963
		},
		{
			"buffer":0,
			"byteLength":16512,
			"byteOffset":23860,
			"target":34962
		},
		{
			"buffer":0,
			"byteLength":16512,
			"byteOffset":40372,
			"target":34962
		},
		{
			"buffer":0,
			"byteLength":11008,
			"byteOffset":56884,
			"target":34962
		},
		{
			"buffer":0,
			"byteLength":8184,
			"byteOffset":67892,
			"target":34963
		},
		{
			"buffer":0,
			"byteLength":4608,
			"byteOffset":76076,
			"target":34962
		},
		{
			"buffer":0,
			"byteLength":4608,
			"byteOffset":80684,
			"target":34962
		},
		{
			"buffer":0,
			"byteLength":3072,
			"byteOffset":85292,
			"target":34962
		},
		{
			"buffer":0,
			"byteLength":1248,
			"byteOffset":88364,
			"target":34963
		},
		{
			"buffer":0,
			"byteLength":576,
			"byteOffset":89612,
			"target":34962
		},
		{
			"buffer":0,
			"byteLength":576,
			"byteOffset":90188,
			"target":34962
		},
		{
			"buffer":0,
			"byteLength":384,
			"byteOffset":90764,
			"target":34962
		},
		{
			"buffer":0,
			"byteLength":288,
			"byteOffset":91148,
			"target":34963
		}
	],
	"samplers":[
		{
			"magFilter":9728,
			"minFilter":9984
		}
	],
	"buffers":[
		{
			"byteLength":91436,
			"uri":"door_1.bin"
		}
	]
}
