{
	"asset":{
		"generator":"Khronos glTF Blender I/O v4.0.44",
		"version":"2.0"
	},
	"extensionsUsed":[
		"KHR_materials_specular",
		"KHR_materials_ior"
	],
	"scene":0,
	"scenes":[
		{
			"name":"Scene",
			"nodes":[
				0,
				1,
				2,
				3,
				4
			]
		}
	],
	"nodes":[
		{
			"mesh":0,
			"name":"doorarch-col"
		},
		{
			"mesh":1,
			"name":"doorpillars-col"
		},
		{
			"mesh":2,
			"name":"irondoor-col.001"
		},
		{
			"mesh":3,
			"name":"keyhole-col",
			"rotation":[
				0,
				-1,
				0,
				7.549790836947068e-08
			],
			"scale":[
				1,
				1,
				1.2791720628738403
			],
			"translation":[
				-0.3486998975276947,
				0.8700514435768127,
				-0.05560624971985817
			]
		},
		{
			"mesh":4,
			"name":"key-col",
			"scale":[
				1,
				1,
				1.2791720628738403
			],
			"translation":[
				-0.3656010627746582,
				0.8727659583091736,
				0.05849752575159073
			]
		}
	],
	"materials":[
		{
			"doubleSided":true,
			"extensions":{
				"KHR_materials_specular":{
					"specularFactor":0
				},
				"KHR_materials_ior":{
					"ior":1.4500000476837158
				}
			},
			"name":"Dungeon_Atlas",
			"pbrMetallicRoughness":{
				"baseColorTexture":{
					"index":0
				},
				"metallicFactor":0
			}
		},
		{
			"doubleSided":true,
			"extensions":{
				"KHR_materials_specular":{
					"specularFactor":0
				},
				"KHR_materials_ior":{
					"ior":1.4500000476837158
				}
			},
			"name":"Material.001",
			"pbrMetallicRoughness":{
				"baseColorFactor":[
					0,
					0,
					0,
					1
				],
				"metallicFactor":0
			}
		}
	],
	"meshes":[
		{
			"name":"Cube",
			"primitives":[
				{
					"attributes":{
						"POSITION":0,
						"NORMAL":1,
						"TEXCOORD_0":2
					},
					"indices":3,
					"material":0
				}
			]
		},
		{
			"name":"Cube.004",
			"primitives":[
				{
					"attributes":{
						"POSITION":4,
						"NORMAL":5,
						"TEXCOORD_0":6
					},
					"indices":7,
					"material":0
				}
			]
		},
		{
			"name":"Cube.032",
			"primitives":[
				{
					"attributes":{
						"POSITION":8,
						"NORMAL":9,
						"TEXCOORD_0":10
					},
					"indices":11,
					"material":0
				}
			]
		},
		{
			"name":"Cube.029",
			"primitives":[
				{
					"attributes":{
						"POSITION":12,
						"NORMAL":13,
						"TEXCOORD_0":14
					},
					"indices":15,
					"material":0
				},
				{
					"attributes":{
						"POSITION":16,
						"NORMAL":17,
						"TEXCOORD_0":18
					},
					"indices":19,
					"material":1
				}
			]
		},
		{
			"name":"Cube.033",
			"primitives":[
				{
					"attributes":{
						"POSITION":20,
						"NORMAL":21,
						"TEXCOORD_0":22
					},
					"indices":15,
					"material":0
				},
				{
					"attributes":{
						"POSITION":23,
						"NORMAL":24,
						"TEXCOORD_0":25
					},
					"indices":19,
					"material":1
				}
			]
		}
	],
	"textures":[
		{
			"sampler":0,
			"source":0
		}
	],
	"images":[
		{
			"mimeType":"image/png",
			"name":"Dungeon_Atlas_Albedo",
			"uri":"Dungeon_Atlas_Albedo.png"
		}
	],
	"accessors":[
		{
			"bufferView":0,
			"componentType":5126,
			"count":178,
			"max":[
				0.822738528251648,
				2.0129566192626953,
				0.10525879263877869
			],
			"min":[
				-0.822738528251648,
				1.3410141468048096,
				-0.18510699272155762
			],
			"type":"VEC3"
		},
		{
			"bufferView":1,
			"componentType":5126,
			"count":178,
			"type":"VEC3"
		},
		{
			"bufferView":2,
			"componentType":5126,
			"count":178,
			"type":"VEC2"
		},
		{
			"bufferView":3,
			"componentType":5123,
			"count":402,
			"type":"SCALAR"
		},
		{
			"bufferView":4,
			"componentType":5126,
			"count":496,
			"max":[
				0.8336817622184753,
				1.341526985168457,
				0.12298312783241272
			],
			"min":[
				-0.8336817622184753,
				-0.01568010076880455,
				-0.20118741691112518
			],
			"type":"VEC3"
		},
		{
			"bufferView":5,
			"componentType":5126,
			"count":496,
			"type":"VEC3"
		},
		{
			"bufferView":6,
			"componentType":5126,
			"count":496,
			"type":"VEC2"
		},
		{
			"bufferView":7,
			"componentType":5123,
			"count":744,
			"type":"SCALAR"
		},
		{
			"bufferView":8,
			"componentType":5126,
			"count":336,
			"max":[
				0.5186337232589722,
				1.8779689073562622,
				0.0523713156580925
			],
			"min":[
				-0.5133005976676941,
				0.018523216247558594,
				-0.0523713156580925
			],
			"type":"VEC3"
		},
		{
			"bufferView":9,
			"componentType":5126,
			"count":336,
			"type":"VEC3"
		},
		{
			"bufferView":10,
			"componentType":5126,
			"count":336,
			"type":"VEC2"
		},
		{
			"bufferView":11,
			"componentType":5123,
			"count":504,
			"type":"SCALAR"
		},
		{
			"bufferView":12,
			"componentType":5126,
			"count":192,
			"max":[
				0.13323476910591125,
				0.14615346491336823,
				0.02686702460050583
			],
			"min":[
				-0.1219765767455101,
				-0.14713750779628754,
				-0.043550994247198105
			],
			"type":"VEC3"
		},
		{
			"bufferView":13,
			"componentType":5126,
			"count":192,
			"type":"VEC3"
		},
		{
			"bufferView":14,
			"componentType":5126,
			"count":192,
			"type":"VEC2"
		},
		{
			"bufferView":15,
			"componentType":5123,
			"count":312,
			"type":"SCALAR"
		},
		{
			"bufferView":16,
			"componentType":5126,
			"count":24,
			"max":[
				0.07481012493371964,
				0.12460388243198395,
				0.007330785505473614
			],
			"min":[
				-0.05426844209432602,
				-0.12116167694330215,
				-0.004558925051242113
			],
			"type":"VEC3"
		},
		{
			"bufferView":17,
			"componentType":5126,
			"count":24,
			"type":"VEC3"
		},
		{
			"bufferView":18,
			"componentType":5126,
			"count":24,
			"type":"VEC2"
		},
		{
			"bufferView":19,
			"componentType":5123,
			"count":72,
			"type":"SCALAR"
		},
		{
			"bufferView":20,
			"componentType":5126,
			"count":192,
			"max":[
				0.13323476910591125,
				0.14615346491336823,
				0.02686702460050583
			],
			"min":[
				-0.1219765767455101,
				-0.14713750779628754,
				-0.043550994247198105
			],
			"type":"VEC3"
		},
		{
			"bufferView":21,
			"componentType":5126,
			"count":192,
			"type":"VEC3"
		},
		{
			"bufferView":22,
			"componentType":5126,
			"count":192,
			"type":"VEC2"
		},
		{
			"bufferView":23,
			"componentType":5126,
			"count":24,
			"max":[
				0.07481012493371964,
				0.12460388243198395,
				0.007330785505473614
			],
			"min":[
				-0.05426844209432602,
				-0.12116167694330215,
				-0.004558925051242113
			],
			"type":"VEC3"
		},
		{
			"bufferView":24,
			"componentType":5126,
			"count":24,
			"type":"VEC3"
		},
		{
			"bufferView":25,
			"componentType":5126,
			"count":24,
			"type":"VEC2"
		}
	],
	"bufferViews":[
		{
			"buffer":0,
			"byteLength":2136,
			"byteOffset":0,
			"target":34962
		},
		{
			"buffer":0,
			"byteLength":2136,
			"byteOffset":2136,
			"target":34962
		},
		{
			"buffer":0,
			"byteLength":1424,
			"byteOffset":4272,
			"target":34962
		},
		{
			"buffer":0,
			"byteLength":804,
			"byteOffset":5696,
			"target":34963
		},
		{
			"buffer":0,
			"byteLength":5952,
			"byteOffset":6500,
			"target":34962
		},
		{
			"buffer":0,
			"byteLength":5952,
			"byteOffset":12452,
			"target":34962
		},
		{
			"buffer":0,
			"byteLength":3968,
			"byteOffset":18404,
			"target":34962
		},
		{
			"buffer":0,
			"byteLength":1488,
			"byteOffset":22372,
			"target":34963
		},
		{
			"buffer":0,
			"byteLength":4032,
			"byteOffset":23860,
			"target":34962
		},
		{
			"buffer":0,
			"byteLength":4032,
			"byteOffset":27892,
			"target":34962
		},
		{
			"buffer":0,
			"byteLength":2688,
			"byteOffset":31924,
			"target":34962
		},
		{
			"buffer":0,
			"byteLength":1008,
			"byteOffset":34612,
			"target":34963
		},
		{
			"buffer":0,
			"byteLength":2304,
			"byteOffset":35620,
			"target":34962
		},
		{
			"buffer":0,
			"byteLength":2304,
			"byteOffset":37924,
			"target":34962
		},
		{
			"buffer":0,
			"byteLength":1536,
			"byteOffset":40228,
			"target":34962
		},
		{
			"buffer":0,
			"byteLength":624,
			"byteOffset":41764,
			"target":34963
		},
		{
			"buffer":0,
			"byteLength":288,
			"byteOffset":42388,
			"target":34962
		},
		{
			"buffer":0,
			"byteLength":288,
			"byteOffset":42676,
			"target":34962
		},
		{
			"buffer":0,
			"byteLength":192,
			"byteOffset":42964,
			"target":34962
		},
		{
			"buffer":0,
			"byteLength":144,
			"byteOffset":43156,
			"target":34963
		},
		{
			"buffer":0,
			"byteLength":2304,
			"byteOffset":43300,
			"target":34962
		},
		{
			"buffer":0,
			"byteLength":2304,
			"byteOffset":45604,
			"target":34962
		},
		{
			"buffer":0,
			"byteLength":1536,
			"byteOffset":47908,
			"target":34962
		},
		{
			"buffer":0,
			"byteLength":288,
			"byteOffset":49444,
			"target":34962
		},
		{
			"buffer":0,
			"byteLength":288,
			"byteOffset":49732,
			"target":34962
		},
		{
			"buffer":0,
			"byteLength":192,
			"byteOffset":50020,
			"target":34962
		}
	],
	"samplers":[
		{
			"magFilter":9728,
			"minFilter":9984
		}
	],
	"buffers":[
		{
			"byteLength":50212,
			"uri":"door_3.bin"
		}
	]
}
