{
	"asset":{
		"generator":"Khronos glTF Blender I/O v4.1.62",
		"version":"2.0"
	},
	"extensionsUsed":[
		"KHR_materials_specular",
		"KHR_materials_ior"
	],
	"scene":0,
	"scenes":[
		{
			"name":"Scene",
			"nodes":[
				0,
				1,
				2,
				3
			]
		}
	],
	"nodes":[
		{
			"mesh":0,
			"name":"console-col"
		},
		{
			"mesh":1,
			"name":"gate-col",
			"translation":[
				0,
				0,
				-6
			]
		},
		{
			"mesh":2,
			"name":"cable",
			"translation":[
				0,
				0.15827210247516632,
				0
			]
		},
		{
			"mesh":3,
			"name":"Plane",
			"translation":[
				0,
				0,
				-6
			]
		}
	],
	"materials":[
		{
			"doubleSided":true,
			"extensions":{
				"KHR_materials_specular":{
					"specularFactor":0.3454545736312866
				},
				"KHR_materials_ior":{
					"ior":1.4500000476837158
				}
			},
			"name":"Material",
			"pbrMetallicRoughness":{
				"metallicFactor":0,
				"roughnessFactor":0.8054545521736145
			}
		},
		{
			"doubleSided":true,
			"extensions":{
				"KHR_materials_specular":{
					"specularFactor":0.06909090280532837
				}
			},
			"name":"Material.002",
			"pbrMetallicRoughness":{
				"metallicFactor":0,
				"roughnessFactor":0.718181848526001
			}
		},
		{
			"doubleSided":true,
			"name":"Material.001",
			"pbrMetallicRoughness":{
				"baseColorFactor":[
					0.026240430772304535,
					0.012846244499087334,
					0.003660289803519845,
					1
				],
				"metallicFactor":0,
				"roughnessFactor":0.5
			}
		},
		{
			"doubleSided":true,
			"extensions":{
				"KHR_materials_specular":{
					"specularFactor":0
				}
			},
			"name":"Material.003",
			"pbrMetallicRoughness":{
				"baseColorTexture":{
					"index":0
				},
				"metallicFactor":0
			}
		}
	],
	"meshes":[
		{
			"name":"Cube",
			"primitives":[
				{
					"attributes":{
						"POSITION":0,
						"NORMAL":1,
						"TEXCOORD_0":2,
						"COLOR_0":3
					},
					"indices":4,
					"material":0
				}
			]
		},
		{
			"name":"Cube.001",
			"primitives":[
				{
					"attributes":{
						"POSITION":5,
						"NORMAL":6,
						"TEXCOORD_0":7,
						"COLOR_0":8
					},
					"indices":9,
					"material":1
				}
			]
		},
		{
			"name":"B\u00e9zierCurve",
			"primitives":[
				{
					"attributes":{
						"POSITION":10,
						"NORMAL":11,
						"TEXCOORD_0":12
					},
					"indices":13,
					"material":2
				}
			]
		},
		{
			"name":"Plane",
			"primitives":[
				{
					"attributes":{
						"POSITION":14,
						"NORMAL":15,
						"TEXCOORD_0":16
					},
					"indices":17,
					"material":3
				}
			]
		}
	],
	"textures":[
		{
			"sampler":0,
			"source":0
		}
	],
	"images":[
		{
			"mimeType":"image/png",
			"name":"gate-portal",
			"uri":"textures/gate-portal.png"
		}
	],
	"accessors":[
		{
			"bufferView":0,
			"componentType":5126,
			"count":112,
			"max":[
				0.7098502516746521,
				0.8871434926986694,
				0.7098502516746521
			],
			"min":[
				-0.7098502516746521,
				0,
				-0.7098502516746521
			],
			"type":"VEC3"
		},
		{
			"bufferView":1,
			"componentType":5126,
			"count":112,
			"type":"VEC3"
		},
		{
			"bufferView":2,
			"componentType":5126,
			"count":112,
			"type":"VEC2"
		},
		{
			"bufferView":3,
			"componentType":5126,
			"count":112,
			"type":"VEC3"
		},
		{
			"bufferView":4,
			"componentType":5123,
			"count":180,
			"type":"SCALAR"
		},
		{
			"bufferView":5,
			"componentType":5126,
			"count":170,
			"max":[
				1.7953938245773315,
				2.3726627826690674,
				0.4062802791595459
			],
			"min":[
				-1.7953938245773315,
				0,
				-0.4062802791595459
			],
			"type":"VEC3"
		},
		{
			"bufferView":6,
			"componentType":5126,
			"count":170,
			"type":"VEC3"
		},
		{
			"bufferView":7,
			"componentType":5126,
			"count":170,
			"type":"VEC2"
		},
		{
			"bufferView":8,
			"componentType":5126,
			"count":170,
			"type":"VEC3"
		},
		{
			"bufferView":9,
			"componentType":5123,
			"count":288,
			"type":"SCALAR"
		},
		{
			"bufferView":10,
			"componentType":5126,
			"count":325,
			"max":[
				1.307328462600708,
				0.294581800699234,
				0.04245549812912941
			],
			"min":[
				-1.3693708181381226,
				-0.029445946216583252,
				-6.107853412628174
			],
			"type":"VEC3"
		},
		{
			"bufferView":11,
			"componentType":5126,
			"count":325,
			"type":"VEC3"
		},
		{
			"bufferView":12,
			"componentType":5126,
			"count":325,
			"type":"VEC2"
		},
		{
			"bufferView":13,
			"componentType":5123,
			"count":1728,
			"type":"SCALAR"
		},
		{
			"bufferView":14,
			"componentType":5126,
			"count":8,
			"max":[
				1.4811457395553589,
				2.383046865463257,
				2.086162567138672e-07
			],
			"min":[
				-1.5057706832885742,
				0.3302795886993408,
				-2.384185791015625e-07
			],
			"type":"VEC3"
		},
		{
			"bufferView":15,
			"componentType":5126,
			"count":8,
			"type":"VEC3"
		},
		{
			"bufferView":16,
			"componentType":5126,
			"count":8,
			"type":"VEC2"
		},
		{
			"bufferView":17,
			"componentType":5123,
			"count":12,
			"type":"SCALAR"
		}
	],
	"bufferViews":[
		{
			"buffer":0,
			"byteLength":1344,
			"byteOffset":0,
			"target":34962
		},
		{
			"buffer":0,
			"byteLength":1344,
			"byteOffset":1344,
			"target":34962
		},
		{
			"buffer":0,
			"byteLength":896,
			"byteOffset":2688,
			"target":34962
		},
		{
			"buffer":0,
			"byteLength":1344,
			"byteOffset":3584,
			"target":34962
		},
		{
			"buffer":0,
			"byteLength":360,
			"byteOffset":4928,
			"target":34963
		},
		{
			"buffer":0,
			"byteLength":2040,
			"byteOffset":5288,
			"target":34962
		},
		{
			"buffer":0,
			"byteLength":2040,
			"byteOffset":7328,
			"target":34962
		},
		{
			"buffer":0,
			"byteLength":1360,
			"byteOffset":9368,
			"target":34962
		},
		{
			"buffer":0,
			"byteLength":2040,
			"byteOffset":10728,
			"target":34962
		},
		{
			"buffer":0,
			"byteLength":576,
			"byteOffset":12768,
			"target":34963
		},
		{
			"buffer":0,
			"byteLength":3900,
			"byteOffset":13344,
			"target":34962
		},
		{
			"buffer":0,
			"byteLength":3900,
			"byteOffset":17244,
			"target":34962
		},
		{
			"buffer":0,
			"byteLength":2600,
			"byteOffset":21144,
			"target":34962
		},
		{
			"buffer":0,
			"byteLength":3456,
			"byteOffset":23744,
			"target":34963
		},
		{
			"buffer":0,
			"byteLength":96,
			"byteOffset":27200,
			"target":34962
		},
		{
			"buffer":0,
			"byteLength":96,
			"byteOffset":27296,
			"target":34962
		},
		{
			"buffer":0,
			"byteLength":64,
			"byteOffset":27392,
			"target":34962
		},
		{
			"buffer":0,
			"byteLength":24,
			"byteOffset":27456,
			"target":34963
		}
	],
	"samplers":[
		{
			"magFilter":9729,
			"minFilter":9987
		}
	],
	"buffers":[
		{
			"byteLength":27480,
			"uri":"gate_console.bin"
		}
	]
}
