{
	"asset":{
		"generator":"Khronos glTF Blender I/O v4.0.44",
		"version":"2.0"
	},
	"extensionsUsed":[
		"KHR_materials_specular",
		"KHR_materials_ior"
	],
	"scene":0,
	"scenes":[
		{
			"name":"Scene",
			"nodes":[
				0
			]
		}
	],
	"nodes":[
		{
			"mesh":0,
			"name":"key-col"
		}
	],
	"materials":[
		{
			"doubleSided":true,
			"extensions":{
				"KHR_materials_specular":{
					"specularFactor":0
				},
				"KHR_materials_ior":{
					"ior":1.4500000476837158
				}
			},
			"name":"Material",
			"pbrMetallicRoughness":{
				"baseColorTexture":{
					"index":0
				},
				"metallicFactor":0.3235294222831726
			}
		}
	],
	"meshes":[
		{
			"name":"Cylinder.002",
			"primitives":[
				{
					"attributes":{
						"POSITION":0,
						"NORMAL":1,
						"TEXCOORD_0":2
					},
					"indices":3,
					"material":0
				}
			]
		}
	],
	"textures":[
		{
			"sampler":0,
			"source":0
		}
	],
	"images":[
		{
			"mimeType":"image/png",
			"name":"Dungeon2_Atlas_Albedo",
			"uri":"Dungeon2_Atlas_Albedo.png"
		}
	],
	"accessors":[
		{
			"bufferView":0,
			"componentType":5126,
			"count":762,
			"max":[
				0.3155060410499573,
				0.05805262178182602,
				0.7680665254592896
			],
			"min":[
				-0.3155060112476349,
				-0.05805262178182602,
				-0.7555150985717773
			],
			"type":"VEC3"
		},
		{
			"bufferView":1,
			"componentType":5126,
			"count":762,
			"type":"VEC3"
		},
		{
			"bufferView":2,
			"componentType":5126,
			"count":762,
			"type":"VEC2"
		},
		{
			"bufferView":3,
			"componentType":5123,
			"count":2112,
			"type":"SCALAR"
		}
	],
	"bufferViews":[
		{
			"buffer":0,
			"byteLength":9144,
			"byteOffset":0,
			"target":34962
		},
		{
			"buffer":0,
			"byteLength":9144,
			"byteOffset":9144,
			"target":34962
		},
		{
			"buffer":0,
			"byteLength":6096,
			"byteOffset":18288,
			"target":34962
		},
		{
			"buffer":0,
			"byteLength":4224,
			"byteOffset":24384,
			"target":34963
		}
	],
	"samplers":[
		{
			"magFilter":9728,
			"minFilter":9984
		}
	],
	"buffers":[
		{
			"byteLength":28608,
			"uri":"key.bin"
		}
	]
}
