{
	"asset":{
		"generator":"Khronos glTF Blender I/O v4.0.44",
		"version":"2.0"
	},
	"extensionsUsed":[
		"KHR_materials_specular",
		"KHR_materials_ior"
	],
	"scene":0,
	"scenes":[
		{
			"name":"Scene",
			"nodes":[
				0,
				1,
				2,
				3
			]
		}
	],
	"nodes":[
		{
			"mesh":0,
			"name":"leverbox-col"
		},
		{
			"mesh":1,
			"name":"leverbolts-col"
		},
		{
			"mesh":2,
			"name":"leverhandle-col",
			"rotation":[
				0.7071068286895752,
				0,
				0,
				0.7071068286895752
			],
			"translation":[
				0.0031283870339393616,
				0.40725386142730713,
				0.41739773750305176
			]
		},
		{
			"mesh":3,
			"name":"handle-col"
		}
	],
	"materials":[
		{
			"doubleSided":true,
			"extensions":{
				"KHR_materials_specular":{
					"specularFactor":0
				},
				"KHR_materials_ior":{
					"ior":1.4500000476837158
				}
			},
			"name":"Material",
			"pbrMetallicRoughness":{
				"baseColorTexture":{
					"index":0
				},
				"metallicFactor":0
			}
		},
		{
			"doubleSided":true,
			"extensions":{
				"KHR_materials_specular":{
					"specularFactor":0
				},
				"KHR_materials_ior":{
					"ior":1.4500000476837158
				}
			},
			"name":"Material.001",
			"pbrMetallicRoughness":{
				"baseColorFactor":[
					0,
					0,
					0,
					1
				],
				"metallicFactor":0
			}
		}
	],
	"meshes":[
		{
			"name":"Cube",
			"primitives":[
				{
					"attributes":{
						"POSITION":0,
						"NORMAL":1,
						"TEXCOORD_0":2
					},
					"indices":3,
					"material":0
				},
				{
					"attributes":{
						"POSITION":4,
						"NORMAL":5,
						"TEXCOORD_0":6
					},
					"indices":7,
					"material":1
				}
			]
		},
		{
			"name":"Sphere.003",
			"primitives":[
				{
					"attributes":{
						"POSITION":8,
						"NORMAL":9,
						"TEXCOORD_0":10
					},
					"indices":11,
					"material":0
				}
			]
		},
		{
			"name":"Cylinder",
			"primitives":[
				{
					"attributes":{
						"POSITION":12,
						"NORMAL":13,
						"TEXCOORD_0":14
					},
					"indices":15,
					"material":0
				}
			]
		},
		{
			"name":"Cylinder.003",
			"primitives":[
				{
					"attributes":{
						"POSITION":16,
						"NORMAL":17,
						"TEXCOORD_0":18
					},
					"indices":19,
					"material":0
				}
			]
		}
	],
	"textures":[
		{
			"sampler":0,
			"source":0
		}
	],
	"images":[
		{
			"mimeType":"image/png",
			"name":"Dungeon_Atlas_Albedo",
			"uri":"Dungeon_Atlas_Albedo.png"
		}
	],
	"accessors":[
		{
			"bufferView":0,
			"componentType":5126,
			"count":194,
			"max":[
				0.28469738364219666,
				0.8514376878738403,
				0.12066812068223953
			],
			"min":[
				-0.28469738364219666,
				0.014477908611297607,
				-0.12066812068223953
			],
			"type":"VEC3"
		},
		{
			"bufferView":1,
			"componentType":5126,
			"count":194,
			"type":"VEC3"
		},
		{
			"bufferView":2,
			"componentType":5126,
			"count":194,
			"type":"VEC2"
		},
		{
			"bufferView":3,
			"componentType":5123,
			"count":636,
			"type":"SCALAR"
		},
		{
			"bufferView":4,
			"componentType":5126,
			"count":12,
			"max":[
				0.053770843893289566,
				0.7409530878067017,
				0.048879534006118774
			],
			"min":[
				-0.045594312250614166,
				0.11615082621574402,
				0.029630865901708603
			],
			"type":"VEC3"
		},
		{
			"bufferView":5,
			"componentType":5126,
			"count":12,
			"type":"VEC3"
		},
		{
			"bufferView":6,
			"componentType":5126,
			"count":12,
			"type":"VEC2"
		},
		{
			"bufferView":7,
			"componentType":5123,
			"count":24,
			"type":"SCALAR"
		},
		{
			"bufferView":8,
			"componentType":5126,
			"count":228,
			"max":[
				0.23616226017475128,
				0.8088908195495605,
				0.14427557587623596
			],
			"min":[
				-0.23616226017475128,
				0.0677550882101059,
				0.12003248929977417
			],
			"type":"VEC3"
		},
		{
			"bufferView":9,
			"componentType":5126,
			"count":228,
			"type":"VEC3"
		},
		{
			"bufferView":10,
			"componentType":5126,
			"count":228,
			"type":"VEC2"
		},
		{
			"bufferView":11,
			"componentType":5123,
			"count":864,
			"type":"SCALAR"
		},
		{
			"bufferView":12,
			"componentType":5126,
			"count":644,
			"max":[
				0.11117259413003922,
				0.21347676217556,
				0.11117281764745712
			],
			"min":[
				-0.11117275804281235,
				-0.4779519736766815,
				-0.11117254197597504
			],
			"type":"VEC3"
		},
		{
			"bufferView":13,
			"componentType":5126,
			"count":644,
			"type":"VEC3"
		},
		{
			"bufferView":14,
			"componentType":5126,
			"count":644,
			"type":"VEC2"
		},
		{
			"bufferView":15,
			"componentType":5123,
			"count":2286,
			"type":"SCALAR"
		},
		{
			"bufferView":16,
			"componentType":5126,
			"count":72,
			"max":[
				0.046591322869062424,
				0.45319685339927673,
				0.06887754052877426
			],
			"min":[
				-0.041314076632261276,
				0.36529144644737244,
				0.028500257059931755
			],
			"type":"VEC3"
		},
		{
			"bufferView":17,
			"componentType":5126,
			"count":72,
			"type":"VEC3"
		},
		{
			"bufferView":18,
			"componentType":5126,
			"count":72,
			"type":"VEC2"
		},
		{
			"bufferView":19,
			"componentType":5123,
			"count":132,
			"type":"SCALAR"
		}
	],
	"bufferViews":[
		{
			"buffer":0,
			"byteLength":2328,
			"byteOffset":0,
			"target":34962
		},
		{
			"buffer":0,
			"byteLength":2328,
			"byteOffset":2328,
			"target":34962
		},
		{
			"buffer":0,
			"byteLength":1552,
			"byteOffset":4656,
			"target":34962
		},
		{
			"buffer":0,
			"byteLength":1272,
			"byteOffset":6208,
			"target":34963
		},
		{
			"buffer":0,
			"byteLength":144,
			"byteOffset":7480,
			"target":34962
		},
		{
			"buffer":0,
			"byteLength":144,
			"byteOffset":7624,
			"target":34962
		},
		{
			"buffer":0,
			"byteLength":96,
			"byteOffset":7768,
			"target":34962
		},
		{
			"buffer":0,
			"byteLength":48,
			"byteOffset":7864,
			"target":34963
		},
		{
			"buffer":0,
			"byteLength":2736,
			"byteOffset":7912,
			"target":34962
		},
		{
			"buffer":0,
			"byteLength":2736,
			"byteOffset":10648,
			"target":34962
		},
		{
			"buffer":0,
			"byteLength":1824,
			"byteOffset":13384,
			"target":34962
		},
		{
			"buffer":0,
			"byteLength":1728,
			"byteOffset":15208,
			"target":34963
		},
		{
			"buffer":0,
			"byteLength":7728,
			"byteOffset":16936,
			"target":34962
		},
		{
			"buffer":0,
			"byteLength":7728,
			"byteOffset":24664,
			"target":34962
		},
		{
			"buffer":0,
			"byteLength":5152,
			"byteOffset":32392,
			"target":34962
		},
		{
			"buffer":0,
			"byteLength":4572,
			"byteOffset":37544,
			"target":34963
		},
		{
			"buffer":0,
			"byteLength":864,
			"byteOffset":42116,
			"target":34962
		},
		{
			"buffer":0,
			"byteLength":864,
			"byteOffset":42980,
			"target":34962
		},
		{
			"buffer":0,
			"byteLength":576,
			"byteOffset":43844,
			"target":34962
		},
		{
			"buffer":0,
			"byteLength":264,
			"byteOffset":44420,
			"target":34963
		}
	],
	"samplers":[
		{
			"magFilter":9728,
			"minFilter":9984
		}
	],
	"buffers":[
		{
			"byteLength":44684,
			"uri":"lever3.bin"
		}
	]
}
