{
	"asset":{
		"generator":"Khronos glTF Blender I/O v4.0.44",
		"version":"2.0"
	},
	"extensionsUsed":[
		"KHR_materials_specular",
		"KHR_materials_ior"
	],
	"scene":0,
	"scenes":[
		{
			"name":"Scene",
			"nodes":[
				0,
				1
			]
		}
	],
	"nodes":[
		{
			"mesh":0,
			"name":"leverbox2-col"
		},
		{
			"mesh":1,
			"name":"lever2handle-col",
			"scale":[
				0.031603943556547165,
				0.031603943556547165,
				0.031603943556547165
			]
		}
	],
	"materials":[
		{
			"doubleSided":true,
			"extensions":{
				"KHR_materials_specular":{
					"specularFactor":0
				},
				"KHR_materials_ior":{
					"ior":1.4500000476837158
				}
			},
			"name":"Material.001",
			"pbrMetallicRoughness":{
				"baseColorFactor":[
					0,
					0,
					0,
					1
				],
				"metallicFactor":0
			}
		},
		{
			"doubleSided":true,
			"extensions":{
				"KHR_materials_specular":{
					"specularFactor":0
				},
				"KHR_materials_ior":{
					"ior":1.4500000476837158
				}
			},
			"name":"Material",
			"pbrMetallicRoughness":{
				"baseColorTexture":{
					"index":0
				},
				"metallicFactor":0
			}
		}
	],
	"meshes":[
		{
			"name":"Cube.001",
			"primitives":[
				{
					"attributes":{
						"POSITION":0,
						"NORMAL":1,
						"TEXCOORD_0":2
					},
					"indices":3,
					"material":0
				},
				{
					"attributes":{
						"POSITION":4,
						"NORMAL":5,
						"TEXCOORD_0":6
					},
					"indices":7,
					"material":1
				}
			]
		},
		{
			"name":"Cylinder.004",
			"primitives":[
				{
					"attributes":{
						"POSITION":8,
						"NORMAL":9,
						"TEXCOORD_0":10
					},
					"indices":11,
					"material":1
				}
			]
		}
	],
	"textures":[
		{
			"sampler":0,
			"source":0
		}
	],
	"images":[
		{
			"mimeType":"image/png",
			"name":"Dungeon_Atlas_Albedo",
			"uri":"Dungeon_Atlas_Albedo.png"
		}
	],
	"accessors":[
		{
			"bufferView":0,
			"componentType":5126,
			"count":180,
			"max":[
				0.5396342873573303,
				0.03977559879422188,
				0.07993249595165253
			],
			"min":[
				-0.5396342873573303,
				-0.011943750083446503,
				-0.0185965895652771
			],
			"type":"VEC3"
		},
		{
			"bufferView":1,
			"componentType":5126,
			"count":180,
			"type":"VEC3"
		},
		{
			"bufferView":2,
			"componentType":5126,
			"count":180,
			"type":"VEC2"
		},
		{
			"bufferView":3,
			"componentType":5123,
			"count":270,
			"type":"SCALAR"
		},
		{
			"bufferView":4,
			"componentType":5126,
			"count":232,
			"max":[
				0.8741886019706726,
				0.045903727412223816,
				0.550646960735321
			],
			"min":[
				-0.8741886019706726,
				-0.13768112659454346,
				-0.550646960735321
			],
			"type":"VEC3"
		},
		{
			"bufferView":5,
			"componentType":5126,
			"count":232,
			"type":"VEC3"
		},
		{
			"bufferView":6,
			"componentType":5126,
			"count":232,
			"type":"VEC2"
		},
		{
			"bufferView":7,
			"componentType":5123,
			"count":390,
			"type":"SCALAR"
		},
		{
			"bufferView":8,
			"componentType":5126,
			"count":183,
			"max":[
				5.030961990356445,
				8.421714782714844,
				5.874118328094482
			],
			"min":[
				-5.030961990356445,
				-0.9215671420097351,
				-4.187805652618408
			],
			"type":"VEC3"
		},
		{
			"bufferView":9,
			"componentType":5126,
			"count":183,
			"type":"VEC3"
		},
		{
			"bufferView":10,
			"componentType":5126,
			"count":183,
			"type":"VEC2"
		},
		{
			"bufferView":11,
			"componentType":5123,
			"count":852,
			"type":"SCALAR"
		}
	],
	"bufferViews":[
		{
			"buffer":0,
			"byteLength":2160,
			"byteOffset":0,
			"target":34962
		},
		{
			"buffer":0,
			"byteLength":2160,
			"byteOffset":2160,
			"target":34962
		},
		{
			"buffer":0,
			"byteLength":1440,
			"byteOffset":4320,
			"target":34962
		},
		{
			"buffer":0,
			"byteLength":540,
			"byteOffset":5760,
			"target":34963
		},
		{
			"buffer":0,
			"byteLength":2784,
			"byteOffset":6300,
			"target":34962
		},
		{
			"buffer":0,
			"byteLength":2784,
			"byteOffset":9084,
			"target":34962
		},
		{
			"buffer":0,
			"byteLength":1856,
			"byteOffset":11868,
			"target":34962
		},
		{
			"buffer":0,
			"byteLength":780,
			"byteOffset":13724,
			"target":34963
		},
		{
			"buffer":0,
			"byteLength":2196,
			"byteOffset":14504,
			"target":34962
		},
		{
			"buffer":0,
			"byteLength":2196,
			"byteOffset":16700,
			"target":34962
		},
		{
			"buffer":0,
			"byteLength":1464,
			"byteOffset":18896,
			"target":34962
		},
		{
			"buffer":0,
			"byteLength":1704,
			"byteOffset":20360,
			"target":34963
		}
	],
	"samplers":[
		{
			"magFilter":9728,
			"minFilter":9984
		}
	],
	"buffers":[
		{
			"byteLength":22064,
			"uri":"lever2.bin"
		}
	]
}
