{
	"asset":{
		"generator":"Khronos glTF Blender I/O v4.0.44",
		"version":"2.0"
	},
	"scene":0,
	"scenes":[
		{
			"name":"Scene",
			"nodes":[
				3
			]
		}
	],
	"nodes":[
		{
			"mesh":0,
			"name":"Bolts"
		},
		{
			"mesh":1,
			"name":"Case"
		},
		{
			"mesh":2,
			"name":"Handle"
		},
		{
			"children":[
				0,
				1,
				2
			],
			"name":"Lever"
		}
	],
	"materials":[
		{
			"doubleSided":true,
			"name":"gradient_Pallete",
			"pbrMetallicRoughness":{
				"baseColorTexture":{
					"index":0
				},
				"metallicFactor":0,
				"roughnessFactor":0.5527864098548889
			}
		}
	],
	"meshes":[
		{
			"name":"Mesh.001",
			"primitives":[
				{
					"attributes":{
						"POSITION":0,
						"NORMAL":1,
						"TEXCOORD_0":2
					},
					"indices":3,
					"material":0
				}
			]
		},
		{
			"name":"Mesh.002",
			"primitives":[
				{
					"attributes":{
						"POSITION":4,
						"NORMAL":5,
						"TEXCOORD_0":6
					},
					"indices":7,
					"material":0
				}
			]
		},
		{
			"name":"Mesh",
			"primitives":[
				{
					"attributes":{
						"POSITION":8,
						"NORMAL":9,
						"TEXCOORD_0":10
					},
					"indices":11,
					"material":0
				}
			]
		}
	],
	"textures":[
		{
			"sampler":0,
			"source":0
		}
	],
	"images":[
		{
			"mimeType":"image/png",
			"name":"387359c5580f06c08c266126b3b46db47e48ba44",
			"uri":"textures/387359c5580f06c08c266126b3b46db47e48ba44.png"
		}
	],
	"accessors":[
		{
			"bufferView":0,
			"componentType":5126,
			"count":416,
			"max":[
				0.23768079280853271,
				0.7136512398719788,
				0.006164324935525656
			],
			"min":[
				-0.2376808524131775,
				0.017086662352085114,
				-0.015756018459796906
			],
			"type":"VEC3"
		},
		{
			"bufferView":1,
			"componentType":5126,
			"count":416,
			"type":"VEC3"
		},
		{
			"bufferView":2,
			"componentType":5126,
			"count":416,
			"type":"VEC2"
		},
		{
			"bufferView":3,
			"componentType":5123,
			"count":2280,
			"type":"SCALAR"
		},
		{
			"bufferView":4,
			"componentType":5126,
			"count":296,
			"max":[
				0.26759588718414307,
				0.7646017074584961,
				-0.016883686184883118
			],
			"min":[
				-0.2675957977771759,
				-0.017160920426249504,
				-0.43446874618530273
			],
			"type":"VEC3"
		},
		{
			"bufferView":5,
			"componentType":5126,
			"count":296,
			"type":"VEC3"
		},
		{
			"bufferView":6,
			"componentType":5126,
			"count":296,
			"type":"VEC2"
		},
		{
			"bufferView":7,
			"componentType":5123,
			"count":660,
			"type":"SCALAR"
		},
		{
			"bufferView":8,
			"componentType":5126,
			"count":109,
			"max":[
				0.0935860276222229,
				0.46957680583000183,
				0.4296149015426636
			],
			"min":[
				-0.09358587116003036,
				0.28240475058555603,
				-0.24266695976257324
			],
			"type":"VEC3"
		},
		{
			"bufferView":9,
			"componentType":5126,
			"count":109,
			"type":"VEC3"
		},
		{
			"bufferView":10,
			"componentType":5126,
			"count":109,
			"type":"VEC2"
		},
		{
			"bufferView":11,
			"componentType":5123,
			"count":612,
			"type":"SCALAR"
		}
	],
	"bufferViews":[
		{
			"buffer":0,
			"byteLength":4992,
			"byteOffset":0,
			"target":34962
		},
		{
			"buffer":0,
			"byteLength":4992,
			"byteOffset":4992,
			"target":34962
		},
		{
			"buffer":0,
			"byteLength":3328,
			"byteOffset":9984,
			"target":34962
		},
		{
			"buffer":0,
			"byteLength":4560,
			"byteOffset":13312,
			"target":34963
		},
		{
			"buffer":0,
			"byteLength":3552,
			"byteOffset":17872,
			"target":34962
		},
		{
			"buffer":0,
			"byteLength":3552,
			"byteOffset":21424,
			"target":34962
		},
		{
			"buffer":0,
			"byteLength":2368,
			"byteOffset":24976,
			"target":34962
		},
		{
			"buffer":0,
			"byteLength":1320,
			"byteOffset":27344,
			"target":34963
		},
		{
			"buffer":0,
			"byteLength":1308,
			"byteOffset":28664,
			"target":34962
		},
		{
			"buffer":0,
			"byteLength":1308,
			"byteOffset":29972,
			"target":34962
		},
		{
			"buffer":0,
			"byteLength":872,
			"byteOffset":31280,
			"target":34962
		},
		{
			"buffer":0,
			"byteLength":1224,
			"byteOffset":32152,
			"target":34963
		}
	],
	"samplers":[
		{
			"magFilter":9729,
			"minFilter":9987
		}
	],
	"buffers":[
		{
			"byteLength":33376,
			"uri":"Lever.bin"
		}
	]
}
