{
	"asset":{
		"generator":"Khronos glTF Blender I/O v4.0.44",
		"version":"2.0"
	},
	"scene":0,
	"scenes":[
		{
			"name":"Scene",
			"nodes":[
				3
			]
		}
	],
	"nodes":[
		{
			"mesh":0,
			"name":"Bolts"
		},
		{
			"mesh":1,
			"name":"Case"
		},
		{
			"mesh":2,
			"name":"Handle"
		},
		{
			"children":[
				0,
				1,
				2
			],
			"name":"Lever",
			"rotation":[
				0.7071068286895752,
				0,
				0,
				0.7071068286895752
			],
			"scale":[
				0.009999999776482582,
				0.009999999776482582,
				0.009999999776482582
			]
		}
	],
	"materials":[
		{
			"doubleSided":true,
			"name":"gradient_Pallete",
			"pbrMetallicRoughness":{
				"baseColorTexture":{
					"index":0
				},
				"metallicFactor":0,
				"roughnessFactor":0.5527864098548889
			}
		}
	],
	"meshes":[
		{
			"name":"Mesh.001",
			"primitives":[
				{
					"attributes":{
						"POSITION":0,
						"NORMAL":1,
						"TEXCOORD_0":2
					},
					"indices":3,
					"material":0
				}
			]
		},
		{
			"name":"Mesh.002",
			"primitives":[
				{
					"attributes":{
						"POSITION":4,
						"NORMAL":5,
						"TEXCOORD_0":6
					},
					"indices":7,
					"material":0
				}
			]
		},
		{
			"name":"Mesh",
			"primitives":[
				{
					"attributes":{
						"POSITION":8,
						"NORMAL":9,
						"TEXCOORD_0":10
					},
					"indices":11,
					"material":0
				}
			]
		}
	],
	"textures":[
		{
			"sampler":0,
			"source":0
		}
	],
	"images":[
		{
			"mimeType":"image/png",
			"name":"387359c5580f06c08c266126b3b46db47e48ba44",
			"uri":"textures/387359c5580f06c08c266126b3b46db47e48ba44.png"
		}
	],
	"accessors":[
		{
			"bufferView":0,
			"componentType":5126,
			"count":416,
			"max":[
				77.8602523803711,
				2.0193309783935547,
				-5.5973052978515625
			],
			"min":[
				-77.86027526855469,
				-5.16139030456543,
				-233.78021240234375
			],
			"type":"VEC3"
		},
		{
			"bufferView":1,
			"componentType":5126,
			"count":416,
			"type":"VEC3"
		},
		{
			"bufferView":2,
			"componentType":5126,
			"count":416,
			"type":"VEC2"
		},
		{
			"bufferView":3,
			"componentType":5123,
			"count":2280,
			"type":"SCALAR"
		},
		{
			"bufferView":4,
			"componentType":5126,
			"count":296,
			"max":[
				87.65994262695312,
				-5.530813217163086,
				5.621620178222656
			],
			"min":[
				-87.65990447998047,
				-142.32467651367188,
				-250.47073364257812
			],
			"type":"VEC3"
		},
		{
			"bufferView":5,
			"componentType":5126,
			"count":296,
			"type":"VEC3"
		},
		{
			"bufferView":6,
			"componentType":5126,
			"count":296,
			"type":"VEC2"
		},
		{
			"bufferView":7,
			"componentType":5123,
			"count":660,
			"type":"SCALAR"
		},
		{
			"bufferView":8,
			"componentType":5126,
			"count":109,
			"max":[
				30.657217025756836,
				140.7346649169922,
				-92.5110855102539
			],
			"min":[
				-30.657167434692383,
				-79.4936294555664,
				-153.82550048828125
			],
			"type":"VEC3"
		},
		{
			"bufferView":9,
			"componentType":5126,
			"count":109,
			"type":"VEC3"
		},
		{
			"bufferView":10,
			"componentType":5126,
			"count":109,
			"type":"VEC2"
		},
		{
			"bufferView":11,
			"componentType":5123,
			"count":612,
			"type":"SCALAR"
		}
	],
	"bufferViews":[
		{
			"buffer":0,
			"byteLength":4992,
			"byteOffset":0,
			"target":34962
		},
		{
			"buffer":0,
			"byteLength":4992,
			"byteOffset":4992,
			"target":34962
		},
		{
			"buffer":0,
			"byteLength":3328,
			"byteOffset":9984,
			"target":34962
		},
		{
			"buffer":0,
			"byteLength":4560,
			"byteOffset":13312,
			"target":34963
		},
		{
			"buffer":0,
			"byteLength":3552,
			"byteOffset":17872,
			"target":34962
		},
		{
			"buffer":0,
			"byteLength":3552,
			"byteOffset":21424,
			"target":34962
		},
		{
			"buffer":0,
			"byteLength":2368,
			"byteOffset":24976,
			"target":34962
		},
		{
			"buffer":0,
			"byteLength":1320,
			"byteOffset":27344,
			"target":34963
		},
		{
			"buffer":0,
			"byteLength":1308,
			"byteOffset":28664,
			"target":34962
		},
		{
			"buffer":0,
			"byteLength":1308,
			"byteOffset":29972,
			"target":34962
		},
		{
			"buffer":0,
			"byteLength":872,
			"byteOffset":31280,
			"target":34962
		},
		{
			"buffer":0,
			"byteLength":1224,
			"byteOffset":32152,
			"target":34963
		}
	],
	"samplers":[
		{
			"magFilter":9729,
			"minFilter":9987
		}
	],
	"buffers":[
		{
			"byteLength":33376,
			"uri":"Lever.bin"
		}
	]
}
