{
	"asset":{
		"generator":"Khronos glTF Blender I/O v4.0.44",
		"version":"2.0"
	},
	"extensionsUsed":[
		"KHR_materials_specular",
		"KHR_materials_ior"
	],
	"scene":0,
	"scenes":[
		{
			"name":"Scene",
			"nodes":[
				0
			]
		}
	],
	"nodes":[
		{
			"mesh":0,
			"name":"pot2-col",
			"rotation":[
				0,
				0,
				-0.7071066498756409,
				0.7071069478988647
			],
			"scale":[
				0.05609399080276489,
				0.05609399080276489,
				0.05609399080276489
			],
			"translation":[
				-0.00026175379753112793,
				-0.0011858046054840088,
				0
			]
		}
	],
	"materials":[
		{
			"doubleSided":true,
			"extensions":{
				"KHR_materials_specular":{
					"specularFactor":0
				},
				"KHR_materials_ior":{
					"ior":1.4500000476837158
				}
			},
			"name":"Material",
			"pbrMetallicRoughness":{
				"baseColorTexture":{
					"index":0
				},
				"metallicFactor":0
			}
		}
	],
	"meshes":[
		{
			"name":"NurbsPath.001",
			"primitives":[
				{
					"attributes":{
						"POSITION":0,
						"NORMAL":1,
						"TEXCOORD_0":2
					},
					"indices":3,
					"material":0
				}
			]
		}
	],
	"textures":[
		{
			"sampler":0,
			"source":0
		}
	],
	"images":[
		{
			"mimeType":"image/png",
			"name":"Dungeon2_Atlas_Albedo",
			"uri":"Dungeon2_Atlas_Albedo.png"
		}
	],
	"accessors":[
		{
			"bufferView":0,
			"componentType":5126,
			"count":284,
			"max":[
				-1.644108010623313e-06,
				4.379103660583496,
				4.1647748947143555
			],
			"min":[
				-8.016643524169922,
				-4.379103660583496,
				-4.164775371551514
			],
			"type":"VEC3"
		},
		{
			"bufferView":1,
			"componentType":5126,
			"count":284,
			"type":"VEC3"
		},
		{
			"bufferView":2,
			"componentType":5126,
			"count":284,
			"type":"VEC2"
		},
		{
			"bufferView":3,
			"componentType":5123,
			"count":1320,
			"type":"SCALAR"
		}
	],
	"bufferViews":[
		{
			"buffer":0,
			"byteLength":3408,
			"byteOffset":0,
			"target":34962
		},
		{
			"buffer":0,
			"byteLength":3408,
			"byteOffset":3408,
			"target":34962
		},
		{
			"buffer":0,
			"byteLength":2272,
			"byteOffset":6816,
			"target":34962
		},
		{
			"buffer":0,
			"byteLength":2640,
			"byteOffset":9088,
			"target":34963
		}
	],
	"samplers":[
		{
			"magFilter":9728,
			"minFilter":9984
		}
	],
	"buffers":[
		{
			"byteLength":11728,
			"uri":"pot2.bin"
		}
	]
}
