{
	"asset":{
		"generator":"Khronos glTF Blender I/O v4.0.44",
		"version":"2.0"
	},
	"extensionsUsed":[
		"KHR_materials_specular",
		"KHR_materials_ior"
	],
	"scene":0,
	"scenes":[
		{
			"name":"Scene",
			"nodes":[
				0
			]
		}
	],
	"nodes":[
		{
			"mesh":0,
			"name":"Torch"
		}
	],
	"materials":[
		{
			"doubleSided":true,
			"name":"Material",
			"pbrMetallicRoughness":{
				"metallicFactor":0
			}
		},
		{
			"doubleSided":true,
			"extensions":{
				"KHR_materials_specular":{
					"specularFactor":0
				},
				"KHR_materials_ior":{
					"ior":1.4500000476837158
				}
			},
			"name":"Material.001",
			"pbrMetallicRoughness":{
				"metallicFactor":0.8137255311012268
			}
		}
	],
	"meshes":[
		{
			"name":"Cylinder.001",
			"primitives":[
				{
					"attributes":{
						"POSITION":0,
						"NORMAL":1,
						"TEXCOORD_0":2
					},
					"indices":3,
					"material":0
				},
				{
					"attributes":{
						"POSITION":4,
						"NORMAL":5,
						"TEXCOORD_0":6
					},
					"indices":7,
					"material":1
				}
			]
		}
	],
	"accessors":[
		{
			"bufferView":0,
			"componentType":5126,
			"count":84,
			"max":[
				0.09580324590206146,
				0.4572966694831848,
				0.09580325335264206
			],
			"min":[
				-0.09580324590206146,
				-0.49161723256111145,
				-0.09580324590206146
			],
			"type":"VEC3"
		},
		{
			"bufferView":1,
			"componentType":5126,
			"count":84,
			"type":"VEC3"
		},
		{
			"bufferView":2,
			"componentType":5126,
			"count":84,
			"type":"VEC2"
		},
		{
			"bufferView":3,
			"componentType":5123,
			"count":234,
			"type":"SCALAR"
		},
		{
			"bufferView":4,
			"componentType":5126,
			"count":584,
			"max":[
				0.1929347813129425,
				0.8654917478561401,
				0.19293484091758728
			],
			"min":[
				-0.19293485581874847,
				-0.04651295393705368,
				-0.1929347962141037
			],
			"type":"VEC3"
		},
		{
			"bufferView":5,
			"componentType":5126,
			"count":584,
			"type":"VEC3"
		},
		{
			"bufferView":6,
			"componentType":5126,
			"count":584,
			"type":"VEC2"
		},
		{
			"bufferView":7,
			"componentType":5123,
			"count":1782,
			"type":"SCALAR"
		}
	],
	"bufferViews":[
		{
			"buffer":0,
			"byteLength":1008,
			"byteOffset":0,
			"target":34962
		},
		{
			"buffer":0,
			"byteLength":1008,
			"byteOffset":1008,
			"target":34962
		},
		{
			"buffer":0,
			"byteLength":672,
			"byteOffset":2016,
			"target":34962
		},
		{
			"buffer":0,
			"byteLength":468,
			"byteOffset":2688,
			"target":34963
		},
		{
			"buffer":0,
			"byteLength":7008,
			"byteOffset":3156,
			"target":34962
		},
		{
			"buffer":0,
			"byteLength":7008,
			"byteOffset":10164,
			"target":34962
		},
		{
			"buffer":0,
			"byteLength":4672,
			"byteOffset":17172,
			"target":34962
		},
		{
			"buffer":0,
			"byteLength":3564,
			"byteOffset":21844,
			"target":34963
		}
	],
	"buffers":[
		{
			"byteLength":25408,
			"uri":"torch.bin"
		}
	]
}
