{
	"asset":{
		"generator":"Khronos glTF Blender I/O v4.0.44",
		"version":"2.0"
	},
	"scene":0,
	"scenes":[
		{
			"name":"Scene",
			"nodes":[
				0
			]
		}
	],
	"nodes":[
		{
			"mesh":0,
			"name":"zarrow"
		}
	],
	"materials":[
		{
			"doubleSided":true,
			"name":"Material",
			"pbrMetallicRoughness":{
				"metallicFactor":0,
				"roughnessFactor":0.5
			}
		}
	],
	"meshes":[
		{
			"name":"Cube",
			"primitives":[
				{
					"attributes":{
						"COLOR_0":0,
						"POSITION":1,
						"NORMAL":2,
						"TEXCOORD_0":3
					},
					"indices":4,
					"material":0
				}
			]
		}
	],
	"accessors":[
		{
			"bufferView":0,
			"componentType":5123,
			"count":84,
			"normalized":true,
			"type":"VEC4"
		},
		{
			"bufferView":1,
			"componentType":5126,
			"count":84,
			"max":[
				0.1700030267238617,
				0.4735672175884247,
				0.09909588098526001
			],
			"min":[
				-0.17000311613082886,
				-0.1700030416250229,
				-0.761849045753479
			],
			"type":"VEC3"
		},
		{
			"bufferView":2,
			"componentType":5126,
			"count":84,
			"type":"VEC3"
		},
		{
			"bufferView":3,
			"componentType":5126,
			"count":84,
			"type":"VEC2"
		},
		{
			"bufferView":4,
			"componentType":5123,
			"count":156,
			"type":"SCALAR"
		}
	],
	"bufferViews":[
		{
			"buffer":0,
			"byteLength":672,
			"byteOffset":0,
			"target":34962
		},
		{
			"buffer":0,
			"byteLength":1008,
			"byteOffset":672,
			"target":34962
		},
		{
			"buffer":0,
			"byteLength":1008,
			"byteOffset":1680,
			"target":34962
		},
		{
			"buffer":0,
			"byteLength":672,
			"byteOffset":2688,
			"target":34962
		},
		{
			"buffer":0,
			"byteLength":312,
			"byteOffset":3360,
			"target":34963
		}
	],
	"buffers":[
		{
			"byteLength":3672,
			"uri":"zarrow.bin"
		}
	]
}
